<svg width="1024" height="1024" viewBox="0 0 1024 1024" fill="none" xmlns="http://www.w3.org/2000/svg">
  <defs>
    <filter id="shadow" x="160" y="120" width="520" height="740" filterUnits="userSpaceOnUse" color-interpolation-filters="sRGB">
      <feDropShadow dx="0" dy="18" stdDeviation="22" flood-color="#000000" flood-opacity="0.38"/>
    </filter>
    <filter id="dot-glow" x="620" y="610" width="290" height="290" filterUnits="userSpaceOnUse" color-interpolation-filters="sRGB">
      <feGaussianBlur stdDeviation="18" result="blur"/>
    </filter>
    <linearGradient id="l-body" x1="264" y1="184" x2="676" y2="844" gradientUnits="userSpaceOnUse">
      <stop offset="0" stop-color="#FFFFFF"/>
      <stop offset="0.62" stop-color="#F8F8F8"/>
      <stop offset="1" stop-color="#ECECEC"/>
    </linearGradient>
    <linearGradient id="l-facet" x1="430" y1="568" x2="604" y2="764" gradientUnits="userSpaceOnUse">
      <stop offset="0" stop-color="#D9DDE4"/>
      <stop offset="1" stop-color="#BFC4CF"/>
    </linearGradient>
    <linearGradient id="l-top-facet" x1="446" y1="564" x2="650" y2="730" gradientUnits="userSpaceOnUse">
      <stop offset="0" stop-color="#F6F7F9"/>
      <stop offset="1" stop-color="#D4D8E1"/>
    </linearGradient>
  </defs>

  <rect width="1024" height="1024" rx="0" fill="#0C0D10"/>

  <g filter="url(#shadow)">
    <path
      d="M274 174H454V566L615 566V744H426L274 592V174Z"
      fill="url(#l-body)"
      stroke="#1B1D22"
      stroke-width="5"
      stroke-linejoin="round"
    />
    <path
      d="M274 592L426 744L454 716L454 566L274 592Z"
      fill="url(#l-facet)"
      opacity="0.95"
    />
    <path
      d="M454 566L615 566L615 744L454 566Z"
      fill="url(#l-top-facet)"
      opacity="0.92"
    />
  </g>

  <circle cx="752" cy="731" r="86" fill="#CAFF00" fill-opacity="0.45" filter="url(#dot-glow)"/>
  <circle cx="752" cy="731" r="76" fill="#CAFF00"/>
</svg>
